<svg xmlns="http://www.w3.org/2000/svg" version="1.1" xmlns:xlink="http://www.w3.org/1999/xlink" xmlns:svgjs="http://svgjs.dev/svgjs" width="1000" height="237" viewBox="0 0 1000 237"><g transform="matrix(1,0,0,1,-0.6060606060606233,-0.23805910481753756)"><svg viewBox="0 0 396 94" data-background-color="#7c4e29" preserveAspectRatio="xMidYMid meet" height="237" width="1000" xmlns="http://www.w3.org/2000/svg" xmlns:xlink="http://www.w3.org/1999/xlink"><g id="tight-bounds" transform="matrix(1,0,0,1,0.2400000000000091,0.09442006688965421)"><svg viewBox="0 0 395.52 93.81115986622072" height="93.81115986622072" width="395.52"><g><svg viewBox="0 0 395.52 93.81115986622072" height="93.81115986622072" width="395.52"><g><svg viewBox="0 0 395.52 93.81115986622072" height="93.81115986622072" width="395.52"><g id="textblocktransform"><svg viewBox="0 0 395.52 93.81115986622072" height="93.81115986622072" width="395.52" id="textblock"><g><svg viewBox="0 0 395.52 93.81115986622072" height="93.81115986622072" width="395.52"><rect width="395.52" height="93.81115986622072" x="0" y="0" opacity="1" fill="#e6b17e" data-fill-palette-color="tertiary"></rect><g transform="matrix(1,0,0,1,23.607599999999998,23.607599999999994)"><svg width="348.3048" viewBox="3.9000000953674316 -35.5 269.08001708984375 36" height="46.59595986622073" data-palette-color="#7c4e29"><path d="M9.85 0L5.1 0Q4.6 0 4.25-0.35 3.9-0.7 3.9-1.2L3.9-1.2 3.9-33.75Q3.9-34.3 4.25-34.65 4.6-35 5.1-35L5.1-35 18.5-35Q22.4-35 25.3-33.77 28.2-32.55 29.8-30.08 31.4-27.6 31.4-23.9L31.4-23.9Q31.4-20.15 29.8-17.73 28.2-15.3 25.3-14.1 22.4-12.9 18.5-12.9L18.5-12.9 11.05-12.9 11.05-1.2Q11.05-0.7 10.73-0.35 10.4 0 9.85 0L9.85 0ZM10.95-29.45L10.95-18.45 18.25-18.45Q21.15-18.45 22.7-19.83 24.25-21.2 24.25-23.9L24.25-23.9Q24.25-26.4 22.8-27.93 21.35-29.45 18.25-29.45L18.25-29.45 10.95-29.45ZM60.45 0L38.05 0Q37.55 0 37.2-0.35 36.85-0.7 36.85-1.2L36.85-1.2 36.85-33.75Q36.85-34.3 37.2-34.65 37.55-35 38.05-35L38.05-35 60.05-35Q60.6-35 60.95-34.65 61.3-34.3 61.3-33.75L61.3-33.75 61.3-30.45Q61.3-29.95 60.95-29.6 60.6-29.25 60.05-29.25L60.05-29.25 43.6-29.25 43.6-20.4 58.95-20.4Q59.5-20.4 59.85-20.08 60.2-19.75 60.2-19.2L60.2-19.2 60.2-16.1Q60.2-15.55 59.85-15.23 59.5-14.9 58.95-14.9L58.95-14.9 43.6-14.9 43.6-5.75 60.45-5.75Q61-5.75 61.35-5.4 61.7-5.05 61.7-4.5L61.7-4.5 61.7-1.2Q61.7-0.7 61.35-0.35 61 0 60.45 0L60.45 0ZM81.6 0L69.15 0Q68.65 0 68.3-0.35 67.95-0.7 67.95-1.2L67.95-1.2 67.95-33.75Q67.95-34.3 68.3-34.65 68.65-35 69.15-35L69.15-35 81.35-35Q86.4-35 89.67-33.45 92.95-31.9 94.62-28.85 96.3-25.8 96.35-21.4L96.35-21.4Q96.45-19.2 96.45-17.5 96.45-15.8 96.35-13.65L96.35-13.65Q96.25-9 94.65-5.98 93.05-2.95 89.82-1.48 86.6 0 81.6 0L81.6 0ZM74.9-29.25L74.9-5.75 81.35-5.75Q84.15-5.75 85.9-6.55 87.65-7.35 88.47-9.13 89.3-10.9 89.35-13.8L89.35-13.8Q89.4-15.3 89.42-16.43 89.45-17.55 89.42-18.68 89.4-19.8 89.35-21.25L89.35-21.25Q89.25-25.35 87.3-27.3 85.35-29.25 81.1-29.25L81.1-29.25 74.9-29.25ZM105.29 0L100.94 0Q100.54 0 100.22-0.3 99.89-0.6 99.89-1.05L99.89-1.05Q99.89-1.25 99.99-1.5L99.99-1.5 112.04-33.75Q112.19-34.25 112.62-34.63 113.04-35 113.79-35L113.79-35 119.24-35Q119.99-35 120.39-34.63 120.79-34.25 120.99-33.75L120.99-33.75 133.04-1.5Q133.09-1.25 133.09-1.05L133.09-1.05Q133.09-0.6 132.79-0.3 132.49 0 132.09 0L132.09 0 127.74 0Q127.04 0 126.72-0.33 126.39-0.65 126.29-0.95L126.29-0.95 123.94-7.05 109.09-7.05 106.74-0.95Q106.64-0.65 106.32-0.33 105.99 0 105.29 0L105.29 0ZM116.49-28.25L110.84-12.8 122.19-12.8 116.49-28.25ZM160.64 0L138.94 0Q138.44 0 138.09-0.35 137.74-0.7 137.74-1.2L137.74-1.2 137.74-33.8Q137.74-34.3 138.09-34.65 138.44-35 138.94-35L138.94-35 143.59-35Q144.09-35 144.44-34.65 144.79-34.3 144.79-33.8L144.79-33.8 144.79-5.95 160.64-5.95Q161.19-5.95 161.54-5.6 161.89-5.25 161.89-4.7L161.89-4.7 161.89-1.2Q161.89-0.7 161.54-0.35 161.19 0 160.64 0L160.64 0ZM184.14 0L179.39 0Q178.89 0 178.54-0.35 178.19-0.7 178.19-1.2L178.19-1.2 178.19-33.75Q178.19-34.3 178.54-34.65 178.89-35 179.39-35L179.39-35 192.79-35Q196.69-35 199.59-33.77 202.49-32.55 204.09-30.08 205.69-27.6 205.69-23.9L205.69-23.9Q205.69-20.15 204.09-17.73 202.49-15.3 199.59-14.1 196.69-12.9 192.79-12.9L192.79-12.9 185.34-12.9 185.34-1.2Q185.34-0.7 185.01-0.35 184.69 0 184.14 0L184.14 0ZM185.24-29.45L185.24-18.45 192.54-18.45Q195.44-18.45 196.99-19.83 198.54-21.2 198.54-23.9L198.54-23.9Q198.54-26.4 197.09-27.93 195.64-29.45 192.54-29.45L192.54-29.45 185.24-29.45ZM216.88 0L212.33 0Q211.83 0 211.48-0.35 211.13-0.7 211.13-1.2L211.13-1.2 211.13-33.75Q211.13-34.3 211.48-34.65 211.83-35 212.33-35L212.33-35 225.28-35Q231.33-35 234.83-32.2 238.33-29.4 238.33-24.05L238.33-24.05Q238.33-20.35 236.51-17.9 234.68-15.45 231.63-14.35L231.63-14.35 238.93-1.6Q239.08-1.3 239.08-1.05L239.08-1.05Q239.08-0.6 238.76-0.3 238.43 0 238.03 0L238.03 0 233.48 0Q232.63 0 232.18-0.45 231.73-0.9 231.48-1.35L231.48-1.35 225.03-13.2 218.08-13.2 218.08-1.2Q218.08-0.7 217.76-0.35 217.43 0 216.88 0L216.88 0ZM218.08-29.45L218.08-18.85 225.13-18.85Q228.18-18.85 229.68-20.23 231.18-21.6 231.18-24.1L231.18-24.1Q231.18-26.6 229.71-28.03 228.23-29.45 225.13-29.45L225.13-29.45 218.08-29.45ZM258.23 0.5L258.23 0.5Q253.78 0.5 250.58-0.98 247.38-2.45 245.58-5.53 243.78-8.6 243.63-13.2L243.63-13.2Q243.58-15.35 243.58-17.45 243.58-19.55 243.63-21.75L243.63-21.75Q243.78-26.3 245.63-29.35 247.48-32.4 250.71-33.95 253.93-35.5 258.23-35.5L258.23-35.5Q262.53-35.5 265.78-33.95 269.03-32.4 270.88-29.35 272.73-26.3 272.88-21.75L272.88-21.75Q272.98-19.55 272.98-17.45 272.98-15.35 272.88-13.2L272.88-13.2Q272.73-8.6 270.93-5.53 269.13-2.45 265.91-0.98 262.68 0.5 258.23 0.5ZM258.23-5.25L258.23-5.25Q261.48-5.25 263.53-7.18 265.58-9.1 265.73-13.45L265.73-13.45Q265.83-15.65 265.83-17.53 265.83-19.4 265.73-21.55L265.73-21.55Q265.63-24.45 264.66-26.28 263.68-28.1 262.03-28.93 260.38-29.75 258.23-29.75L258.23-29.75Q256.13-29.75 254.48-28.93 252.83-28.1 251.86-26.28 250.88-24.45 250.78-21.55L250.78-21.55Q250.73-19.4 250.73-17.53 250.73-15.65 250.78-13.45L250.78-13.45Q250.93-9.1 252.98-7.18 255.03-5.25 258.23-5.25Z" opacity="1" transform="matrix(1,0,0,1,0,0)" fill="#7c4e29" class="wordmark-text-0" data-fill-palette-color="quaternary" id="text-0"></path></svg></g></svg></g></svg></g></svg></g></svg></g><defs></defs></svg><rect width="395.52" height="93.81115986622072" fill="none" stroke="none" visibility="hidden"></rect></g></svg></g></svg>